
<svg xmlns="http://www.w3.org/2000/svg" width="80" height="80" viewBox="0 0 24 24" fill="none" stroke="#888" stroke-width="1" stroke-linecap="round" stroke-linejoin="round"><path d="M3 6.2c0 .68.36 1.3.94 1.64l8.5 4.94a1.7 1.7 0 0 0 1.7 0l8.5-4.94A1.7 1.7 0 0 0 23.5 6.2V6c0-.96-.76-1.65-1.7-1.65H4.2c-.92 0-1.7.7-1.7 1.65Z"></path><path d="m9.25 4.75-2.5-2.5"></path><path d="m14.75 4.75 2.5-2.5"></path><path d="M8 19.5h8"></path><path d="M19.2 7.8 12 12l-7.2-4.2"></path><path d="M12 22V12"></path></svg>
